<svg xmlns="http://www.w3.org/2000/svg" width="390" height="844" viewBox="0 0 390 844"><title>08-sounds</title><rect x="0" y="0" width="390" height="844" rx="0" fill="#F7F4EF"/><g id="status-bar"><text x="30" y="42" font-family="Inter, SF Pro Text, system-ui, sans-serif" font-size="15" font-weight="500" fill="#1E2525" text-anchor="start" letter-spacing="0">9:41</text><rect x="300" y="32" width="18" height="11" rx="2" fill="#1E2525" fill-opacity="0.9"/><rect x="324" y="32" width="22" height="11" rx="3" fill="#1E2525" fill-opacity="0.35"/><rect x="325" y="33" width="16" height="9" rx="2" fill="#1E2525"/></g><rect x="0" y="0" width="390" height="116" rx="0" fill="#FFFFFF"/><rect x="0" y="115" width="390" height="1" rx="0" fill="#E4E0D8"/><text x="195" y="74" font-family="Inter, SF Pro Text, system-ui, sans-serif" font-size="18" font-weight="500" fill="#1E2525" text-anchor="middle" letter-spacing="0">Sound</text><text x="366" y="74" font-family="Inter, SF Pro Text, system-ui, sans-serif" font-size="16" font-weight="500" fill="#2F6F73" text-anchor="end" letter-spacing="0">Done</text><g id="sound-Rain"><rect x="24" y="140" width="342" height="64" rx="16" fill="#FFFFFF"/><rect x="24" y="140" width="342" height="64" rx="16" fill="none" stroke="#2F6F73" stroke-width="2"/><circle cx="58" cy="172" r="18" fill="#E4F0F6"/><circle cx="58" cy="172" r="6" fill="#3C7A99"/><text x="90" y="178" font-family="Inter, SF Pro Text, system-ui, sans-serif" font-size="17" font-weight="500" fill="#1E2525" text-anchor="start" letter-spacing="0">Rain</text><text x="342" y="178" font-family="Inter, SF Pro Text, system-ui, sans-serif" font-size="13" font-weight="500" fill="#2F6F73" text-anchor="end" letter-spacing="0">Playing</text></g><g id="sound-Ocean"><rect x="24" y="218" width="342" height="64" rx="16" fill="#FFFFFF"/><rect x="24" y="218" width="342" height="64" rx="16" fill="none" stroke="#E4E0D8" stroke-width="1"/><circle cx="58" cy="250" r="18" fill="#E4F0F6"/><circle cx="58" cy="250" r="6" fill="#3C7A99"/><text x="90" y="256" font-family="Inter, SF Pro Text, system-ui, sans-serif" font-size="17" font-weight="500" fill="#1E2525" text-anchor="start" letter-spacing="0">Ocean</text></g><g id="sound-Fireplace"><rect x="24" y="296" width="342" height="64" rx="16" fill="#FFFFFF"/><rect x="24" y="296" width="342" height="64" rx="16" fill="none" stroke="#E4E0D8" stroke-width="1"/><circle cx="58" cy="328" r="18" fill="#FAEEDA"/><circle cx="58" cy="328" r="6" fill="#C88A2E"/><text x="90" y="334" font-family="Inter, SF Pro Text, system-ui, sans-serif" font-size="17" font-weight="500" fill="#1E2525" text-anchor="start" letter-spacing="0">Fireplace</text><rect x="300" y="318" width="42" height="20" rx="10" fill="#EFEDF9"/><text x="321" y="332" font-family="Inter, SF Pro Text, system-ui, sans-serif" font-size="11" font-weight="500" fill="#6B5CA5" text-anchor="middle" letter-spacing="0">Plus</text></g><g id="sound-White-noise"><rect x="24" y="374" width="342" height="64" rx="16" fill="#FFFFFF"/><rect x="24" y="374" width="342" height="64" rx="16" fill="none" stroke="#E4E0D8" stroke-width="1"/><circle cx="58" cy="406" r="18" fill="#F1EFE8"/><circle cx="58" cy="406" r="6" fill="#8A8A82"/><text x="90" y="412" font-family="Inter, SF Pro Text, system-ui, sans-serif" font-size="17" font-weight="500" fill="#1E2525" text-anchor="start" letter-spacing="0">White noise</text></g><g id="sound-Pink-noise"><rect x="24" y="452" width="342" height="64" rx="16" fill="#FFFFFF"/><rect x="24" y="452" width="342" height="64" rx="16" fill="none" stroke="#E4E0D8" stroke-width="1"/><circle cx="58" cy="484" r="18" fill="#FBEAF0"/><circle cx="58" cy="484" r="6" fill="#B4577F"/><text x="90" y="490" font-family="Inter, SF Pro Text, system-ui, sans-serif" font-size="17" font-weight="500" fill="#1E2525" text-anchor="start" letter-spacing="0">Pink noise</text><rect x="300" y="474" width="42" height="20" rx="10" fill="#EFEDF9"/><text x="321" y="488" font-family="Inter, SF Pro Text, system-ui, sans-serif" font-size="11" font-weight="500" fill="#6B5CA5" text-anchor="middle" letter-spacing="0">Plus</text></g><g id="sound-Brown-noise"><rect x="24" y="530" width="342" height="64" rx="16" fill="#FFFFFF"/><rect x="24" y="530" width="342" height="64" rx="16" fill="none" stroke="#E4E0D8" stroke-width="1"/><circle cx="58" cy="562" r="18" fill="#FAECE7"/><circle cx="58" cy="562" r="6" fill="#C4643F"/><text x="90" y="568" font-family="Inter, SF Pro Text, system-ui, sans-serif" font-size="17" font-weight="500" fill="#1E2525" text-anchor="start" letter-spacing="0">Brown noise</text><rect x="300" y="552" width="42" height="20" rx="10" fill="#EFEDF9"/><text x="321" y="566" font-family="Inter, SF Pro Text, system-ui, sans-serif" font-size="11" font-weight="500" fill="#6B5CA5" text-anchor="middle" letter-spacing="0">Plus</text></g><g id="volume"><text x="30" y="700" font-family="Inter, SF Pro Text, system-ui, sans-serif" font-size="13" font-weight="400" fill="#69706F" text-anchor="start" letter-spacing="0">Volume</text><rect x="30" y="724" width="300" height="5" rx="2.5" fill="#F0EEE8"/><rect x="30" y="724" width="205" height="5" rx="2.5" fill="#2F6F73"/><circle cx="235" cy="726" r="12" fill="#2F6F73"/></g><g id="home-indicator"><rect x="130" y="824" width="130" height="5" rx="2.5" fill="#1E2525" fill-opacity="0.28"/></g></svg>